<?xml version="1.0" standalone="no"?>
<!DOCTYPE svg PUBLIC "-//W3C//DTD SVG 20010904//EN"
 "http://www.w3.org/TR/2001/REC-SVG-20010904/DTD/svg10.dtd">
<svg version="1.0" xmlns="http://www.w3.org/2000/svg"
 width="545.000000pt" height="639.000000pt" viewBox="0 0 545.000000 639.000000"
 preserveAspectRatio="xMidYMid meet">

<g transform="translate(0.000000,639.000000) scale(0.100000,-0.100000)"
fill="#000000" stroke="none">
<path d="M0 3410 c0 -1639 3 -2981 8 -2981 30 -6 90 -5 101 1 8 4 20 3 26 -4
14 -12 6 -31 -32 -79 -12 -15 -25 -43 -29 -62 -7 -39 -36 -70 -59 -62 -13 6
-15 -9 -15 -108 l0 -115 299 0 299 0 0 68 c0 47 -3 60 -8 42 -7 -22 -8 -22 -9
-4 -1 11 -4 24 -8 28 -4 4 -13 28 -19 54 -18 69 -4 130 38 165 30 26 199 113
230 119 7 2 16 7 19 12 7 9 62 43 134 82 37 20 65 27 107 28 34 1 56 -3 55 -9
-1 -5 -7 -10 -14 -10 -6 0 -15 -4 -19 -8 -4 -4 -16 -7 -26 -7 -10 0 -18 -6
-18 -12 0 -10 -3 -9 -9 1 -12 19 -28 6 -36 -29 -4 -17 -11 -27 -16 -24 -6 3
-13 -3 -16 -15 -3 -11 -9 -19 -13 -16 -13 8 -43 -61 -38 -88 3 -15 0 -28 -6
-30 -6 -2 -7 -8 -3 -13 4 -4 14 -4 21 1 7 6 32 22 55 38 22 15 41 32 41 38 0
13 46 59 60 59 5 0 10 -6 10 -14 0 -7 21 -58 46 -112 25 -55 55 -117 65 -140
10 -22 19 -46 19 -52 0 -10 11 -36 53 -129 7 -16 19 -23 38 -23 23 0 27 4 25
23 -1 12 -13 34 -27 49 -40 43 -105 240 -92 275 7 18 38 12 39 -7 1 -8 2 -19
3 -24 0 -5 14 8 31 29 23 29 31 34 36 22 5 -14 8 -14 27 3 38 36 67 18 67 -41
0 -47 18 -99 35 -99 7 0 16 -6 18 -12 4 -10 6 -10 6 0 1 7 6 10 11 7 6 -3 7
-17 4 -30 -3 -12 1 -36 10 -53 9 -17 16 -53 16 -81 0 -50 13 -72 31 -54 8 8
14 31 18 75 1 4 8 14 17 23 12 12 13 19 5 29 -14 17 0 29 23 20 9 -3 16 -1 16
5 0 6 -10 11 -23 11 -23 0 -24 0 -11 58 17 84 18 86 29 94 7 5 6 14 -2 28 -15
24 -16 30 -4 30 16 0 61 -46 61 -61 0 -19 36 -86 61 -112 21 -23 24 -37 9 -37
-5 0 -10 -7 -10 -15 0 -18 17 -20 23 -2 6 16 13 8 21 -25 8 -34 -15 -39 -41
-8 -10 11 -23 20 -31 20 -7 0 -25 8 -39 17 -26 17 -27 17 -20 0 4 -12 1 -17
-11 -17 -16 -1 -16 -1 1 -14 9 -7 17 -21 17 -30 0 -29 19 -54 37 -51 10 2 23
4 28 5 6 1 -1 6 -15 11 -21 7 -19 8 12 5 21 -3 40 0 43 5 4 5 13 9 21 9 12 0
12 -4 2 -19 -7 -11 -15 -18 -19 -15 -9 5 -39 -23 -39 -37 0 -12 17 -11 25 1 5
8 11 8 19 1 8 -7 439 -11 1295 -11 l1282 0 -18 32 c-10 18 -24 37 -30 41 -7 4
-13 15 -13 22 0 8 -7 15 -15 15 -17 0 -39 36 -29 51 3 6 -3 17 -15 25 -21 15
-29 44 -12 44 11 0 122 -135 157 -192 l24 -38 274 0 c260 0 274 1 291 20 18
20 17 20 -44 18 -57 -1 -63 0 -90 31 -18 20 -41 34 -65 38 -56 9 -42 20 18 13
67 -7 68 16 1 26 -57 8 -71 21 -78 66 -6 42 11 52 35 22 29 -36 61 -63 68 -59
4 3 22 0 39 -6 23 -8 29 -14 22 -23 -8 -9 2 -18 35 -34 35 -17 44 -27 40 -40
-5 -15 -5 -16 7 -1 11 15 23 12 122 -27 108 -43 112 -43 233 -44 l122 0 0 77
0 76 -22 -20 c-57 -50 -103 -73 -150 -73 -53 0 -62 8 -49 42 5 15 5 31 -1 41
-13 25 -1 55 25 59 12 2 34 -6 49 -19 28 -21 76 -24 130 -7 18 5 18 52 15
1622 -2 889 -6 1631 -10 1647 -6 23 -5 25 2 10 7 -14 10 29 10 133 l1 154 -30
11 c-16 6 -30 16 -30 21 0 5 -7 18 -16 28 -16 16 -16 18 0 24 9 3 16 12 16 19
0 7 6 15 13 18 9 3 9 7 -1 20 -11 13 -10 17 7 27 12 6 21 17 21 25 0 8 5 15
10 15 6 0 10 18 10 40 0 36 -2 39 -18 29 -15 -9 -24 -8 -45 6 -15 9 -27 22
-27 27 0 5 -5 6 -10 3 -6 -4 -8 -16 -5 -28 6 -18 2 -17 -19 8 l-25 30 -1 -32
c0 -17 4 -34 8 -37 5 -3 8 -29 7 -58 -1 -42 -5 -53 -19 -53 -18 0 -38 -24 -30
-37 3 -4 2 -8 -3 -8 -4 0 -19 16 -32 35 -25 37 -41 45 -41 20 0 -8 6 -15 14
-15 7 0 16 -8 20 -17 3 -10 11 -25 18 -35 9 -13 9 -20 -1 -32 -20 -23 -43 -20
-89 14 -51 37 -64 39 -32 5 18 -19 20 -25 8 -25 -8 0 -33 19 -54 43 -64 72
-72 84 -64 97 5 8 -3 23 -21 41 -16 16 -29 34 -29 42 0 7 -5 18 -11 24 -7 7
-7 13 -1 17 6 4 19 -7 28 -24 10 -16 22 -30 27 -30 4 0 19 -11 33 -25 14 -14
29 -25 33 -25 5 0 19 -16 32 -35 13 -19 28 -35 32 -35 4 0 19 -12 32 -27 24
-27 24 -27 25 -6 0 25 -31 92 -42 93 -5 0 -8 -7 -8 -16 0 -30 -221 213 -264
291 -9 17 -34 55 -56 85 -44 60 -65 111 -57 140 3 12 0 17 -8 14 -7 -3 -18 9
-25 28 -25 64 -93 203 -102 206 -4 2 -6 7 -3 12 3 5 1 20 -5 34 -13 35 5 33
23 -1 8 -16 24 -46 36 -68 16 -30 21 -34 21 -18 0 12 -13 45 -30 73 -16 28
-30 55 -30 60 0 13 -45 77 -68 98 -23 20 -102 155 -102 174 0 7 -18 26 -40 42
-22 17 -40 35 -40 41 0 6 -11 22 -25 35 -14 13 -25 27 -25 32 0 10 51 5 69 -7
6 -3 11 -1 11 4 0 6 -5 11 -12 11 -6 0 -9 3 -6 6 4 3 20 -2 38 -11 18 -9 34
-14 37 -12 7 8 -51 45 -63 40 -6 -2 -24 2 -40 8 l-29 12 25 6 25 7 -28 26
c-18 17 -35 24 -45 21 -14 -5 -15 -3 -4 8 10 10 18 11 45 1 41 -15 47 -15 47
-2 0 6 -9 10 -21 10 -11 0 -30 5 -42 12 -32 18 -89 38 -110 38 -14 0 -17 5
-12 19 7 24 -15 39 -27 18 -14 -26 -38 -8 -38 29 0 27 -4 34 -19 34 -28 0 -47
38 -55 110 -4 36 -12 70 -17 76 -14 17 1 112 20 118 39 13 75 47 76 71 0 10 5
12 50 14 14 0 25 5 25 10 0 11 -25 37 -39 43 -6 2 -6 20 -2 45 10 50 -1 63
-45 60 -26 -2 -29 1 -30 27 -1 20 9 38 32 62 26 26 34 42 34 70 0 32 -2 35
-16 23 -9 -7 -22 -14 -30 -15 -8 -1 -32 -18 -53 -37 -21 -19 -45 -38 -52 -43
-8 -5 -20 -20 -27 -33 -8 -12 -9 -20 -3 -16 7 4 11 -8 11 -34 0 -23 5 -41 10
-41 6 0 10 -14 10 -30 0 -27 3 -30 25 -25 14 3 36 7 50 10 21 5 25 2 25 -19 0
-13 -7 -29 -15 -36 -8 -7 -15 -18 -15 -26 0 -24 -52 -64 -76 -58 -17 4 -22 0
-27 -24 -3 -17 -12 -29 -21 -29 -9 0 -16 4 -16 9 0 4 -11 8 -25 8 -27 0 -28 4
-15 35 5 12 9 14 9 6 1 -17 19 1 61 59 l24 35 -24 -16 c-38 -24 -72 -30 -102
-16 -32 14 -35 23 -10 31 47 16 65 42 68 97 2 34 12 71 28 101 l24 46 -21 30
c-27 36 -43 34 -90 -13 -36 -36 -64 -42 -60 -14 2 8 -7 19 -19 24 -34 16 -32
32 7 46 40 15 46 46 7 41 -28 -4 -29 4 -2 11 11 3 27 -1 35 -10 13 -13 17 -12
37 1 26 18 58 21 58 5 0 -6 6 -17 14 -25 15 -15 30 -19 22 -6 -2 4 13 6 35 4
21 -2 39 -8 39 -13 0 -5 5 -9 10 -9 6 0 10 11 10 25 0 24 31 51 44 38 3 -3 6
1 6 10 0 16 15 22 52 19 9 -1 31 15 48 36 l30 37 -196 3 c-173 2 -199 0 -215
-14 -11 -10 -19 -24 -19 -31 0 -8 -6 -13 -12 -10 -8 2 -12 15 -10 30 l3 27
-1910 0 -1911 0 0 -2980z m3525 2960 c-3 -5 -12 -10 -20 -10 -8 0 -17 5 -20
10 -4 6 5 10 20 10 15 0 24 -4 20 -10z m124 -26 c-6 -8 -15 -14 -20 -14 -14 0
-11 28 4 33 20 7 29 -4 16 -19z m-1133 -41 c-10 -10 -19 5 -10 18 6 11 8 11
12 0 2 -7 1 -15 -2 -18z m1044 7 c0 -27 -46 -38 -68 -17 -14 15 -14 17 9 26
39 16 59 13 59 -9z m-1541 -52 c10 -30 9 -31 -4 -14 -8 11 -15 26 -15 33 0 22
8 14 19 -19z m1421 -2 c0 -7 -5 -17 -12 -24 -9 -9 -16 -8 -30 5 -25 22 -23 28
12 29 17 1 30 -4 30 -10z m-1430 -116 c0 -9 -15 1 -40 27 -52 55 -52 79 0 28
22 -21 40 -46 40 -55z m311 62 c5 -12 4 -24 0 -27 -5 -3 -14 9 -20 26 -12 36
7 37 20 1z m1389 19 c0 -17 -28 -62 -33 -54 -9 15 5 63 19 63 8 0 14 -4 14 -9z
m-1600 -52 c0 -11 5 -29 10 -40 13 -23 7 -25 -14 -3 -18 17 -22 64 -6 64 6 0
10 -9 10 -21z m601 -6 c13 -16 12 -17 -3 -4 -10 7 -18 15 -18 17 0 8 8 3 21
-13z m794 -12 c3 -5 1 -12 -4 -15 -5 -3 -8 -19 -7 -36 2 -23 -2 -30 -16 -30
-18 0 -22 10 -18 39 1 8 -4 17 -11 21 -6 4 -8 13 -5 19 9 13 53 15 61 2z m345
-41 c0 -5 -5 -10 -11 -10 -5 0 -7 5 -4 10 3 6 8 10 11 10 2 0 4 -4 4 -10z
m-1690 -134 c0 -5 -11 3 -25 17 -16 15 -28 41 -31 64 l-5 38 30 -55 c17 -30
30 -59 31 -64z m377 56 c2 -33 1 -35 -9 -14 -6 12 -15 22 -20 22 -4 0 -8 7 -8
15 0 8 8 15 18 15 13 0 17 -9 19 -38z m873 -17 c-16 -20 -30 -19 -59 4 l-24
19 28 0 c16 0 31 5 33 11 2 7 9 6 19 -4 12 -12 13 -19 3 -30z m-1035 -1 c23
-56 18 -64 -10 -15 -28 49 -29 51 -15 51 5 0 17 -16 25 -36z m-640 6 l30 -21
-30 7 c-37 8 -45 13 -45 25 0 14 12 11 45 -11z m510 -40 c5 -16 4 -22 -3 -15
-5 6 -12 24 -16 40 -7 34 7 15 19 -25z m262 18 c-3 -8 -6 -5 -6 6 -1 11 2 17
5 13 3 -3 4 -12 1 -19z m-166 -20 c5 -13 21 -43 34 -68 13 -25 24 -54 24 -65
1 -18 -1 -18 -19 5 -11 14 -20 31 -20 38 0 7 -6 15 -14 18 -8 3 -12 12 -9 21
4 10 0 14 -13 11 -23 -4 -33 40 -12 53 18 12 17 12 29 -13z m138 -34 c24 -40
28 -62 8 -42 -13 12 -40 78 -32 78 1 0 12 -16 24 -36z m-803 -61 c-7 -7 -36
54 -36 74 0 10 9 -2 20 -26 11 -24 18 -46 16 -48z m954 62 c0 -8 -7 -20 -15
-29 -19 -19 -20 -60 -2 -53 8 3 20 1 28 -4 11 -7 12 -12 2 -29 -7 -11 -13 -34
-13 -51 0 -25 3 -29 13 -20 8 6 17 8 20 4 4 -3 7 1 7 10 0 10 5 17 10 17 6 0
10 -8 10 -17 0 -16 1 -16 17 -1 12 12 13 21 6 30 -6 7 -14 23 -17 35 -6 20 -5
21 23 13 27 -8 30 -6 36 21 4 16 4 32 2 37 -3 4 3 19 14 32 l19 25 0 -26 c0
-47 12 -89 25 -89 15 0 25 22 25 56 0 26 10 30 28 12 17 -17 15 -41 -3 -34 -8
3 -15 1 -15 -3 0 -5 -3 -16 -6 -25 -4 -12 0 -16 16 -16 14 0 24 -8 27 -20 l6
-21 19 21 c10 11 30 20 44 20 14 0 23 4 20 8 -6 10 43 56 51 48 3 -2 -2 -15
-11 -27 -14 -21 -14 -25 0 -47 9 -14 14 -35 11 -50 -5 -24 -4 -25 8 -9 17 24
28 22 13 -3 -10 -16 -10 -23 4 -37 23 -22 28 -15 31 45 1 27 6 48 10 45 5 -3
4 4 -2 15 -16 31 -14 53 5 45 9 -3 20 0 24 8 7 11 10 9 16 -6 4 -11 10 -22 13
-25 16 -14 41 -84 36 -100 -7 -23 14 -37 27 -19 6 10 8 3 6 -22 -3 -27 0 -35
9 -32 7 3 13 20 13 38 0 32 14 54 27 42 3 -3 6 -31 7 -61 0 -30 5 -58 10 -63
5 -4 7 -4 3 2 -8 16 18 60 28 45 4 -6 2 -17 -4 -23 -17 -17 -13 -27 9 -27 22
0 50 42 31 48 -13 4 -15 42 -2 42 5 0 12 -6 15 -12 3 -7 3 -1 0 14 -7 34 6 60
17 32 4 -10 8 -34 8 -51 1 -18 6 -33 12 -33 12 0 7 104 -7 150 -7 23 -6 24 11
10 24 -20 55 -88 55 -122 0 -18 5 -28 15 -28 8 0 15 -4 15 -10 0 -5 -6 -10
-12 -10 -9 0 -8 -3 2 -10 12 -8 9 -15 -18 -43 l-33 -34 35 2 c42 4 56 11 56
31 0 8 5 12 10 9 6 -4 10 15 10 49 0 31 3 56 6 56 20 0 42 -22 37 -38 -2 -11
3 -26 11 -35 21 -20 20 -23 -6 -59 l-22 -31 27 -23 c15 -13 27 -27 27 -32 0
-11 24 -22 48 -22 9 0 22 -11 28 -24 10 -21 9 -25 -8 -30 -27 -7 -17 -31 13
-32 31 0 69 -23 52 -30 -23 -10 -14 -26 11 -20 25 6 44 -8 26 -19 -6 -4 -4
-17 5 -36 14 -26 26 -34 48 -30 4 0 7 -7 7 -17 0 -20 44 -56 87 -73 22 -8 24
-12 13 -20 -13 -8 -13 -10 -1 -18 8 -5 16 -15 17 -23 7 -34 32 -91 44 -98 8
-5 10 -17 6 -34 -5 -20 0 -36 16 -58 16 -23 18 -33 9 -36 -7 -2 -16 -15 -21
-28 -8 -20 -14 -23 -40 -18 -35 7 -35 6 -15 -43 17 -41 20 -83 5 -83 -5 0 -10
7 -10 15 0 19 -4 19 -40 0 -17 -9 -30 -12 -30 -9 0 4 -9 -1 -19 -10 -15 -13
-20 -14 -24 -4 -4 14 -37 -54 -37 -78 0 -8 7 -14 15 -14 8 0 15 -6 15 -13 0
-8 11 -19 24 -25 17 -8 23 -17 19 -30 -5 -21 26 -40 37 -23 10 16 50 1 50 -20
0 -10 12 -24 27 -31 32 -16 41 -62 15 -79 -16 -10 -16 -10 1 -5 17 5 24 -8 9
-17 -9 -6 -8 -73 1 -69 42 18 58 12 37 -13 -7 -8 -10 -16 -6 -16 3 -1 11 -3
16 -4 6 -1 15 -3 20 -4 6 0 10 -10 10 -21 0 -12 5 -17 14 -14 13 5 90 -67 92
-86 1 -6 2 -14 3 -20 0 -5 7 -10 15 -10 12 0 27 -27 30 -55 1 -5 7 -14 14 -18
14 -9 17 -47 3 -47 -5 0 -16 7 -24 15 -12 11 -16 12 -20 2 -3 -9 -9 -8 -23 4
-26 21 -73 41 -108 45 -16 2 -44 12 -61 23 -46 27 -210 37 -251 16 -33 -17
-74 -20 -74 -5 0 6 -13 4 -30 -5 -38 -20 -40 -19 -40 10 0 28 -3 30 -33 14
-12 -7 -34 -12 -49 -11 -23 1 -35 -8 -58 -40 -17 -23 -30 -47 -30 -53 0 -7 -7
-15 -15 -19 -8 -3 -14 0 -12 7 1 7 -5 10 -13 9 -8 -2 -52 -5 -97 -8 -66 -3
-86 -7 -103 -24 -11 -11 -26 -21 -33 -21 -6 -1 -16 -2 -22 -4 -5 -1 -18 -3
-27 -3 -10 -1 -18 -10 -18 -19 0 -15 -2 -14 -15 3 -15 19 -15 19 -31 -1 -10
-13 -13 -30 -10 -49 5 -24 3 -27 -12 -21 -9 4 -29 7 -44 6 -16 -1 -31 6 -37
16 -9 17 -10 17 -16 1 -4 -10 -16 -18 -26 -18 -10 0 -19 -4 -19 -10 0 -5 -13
-7 -30 -3 -19 3 -30 1 -31 -6 -1 -6 -3 -15 -4 -21 -1 -5 -3 -12 -4 -15 0 -3
-10 -1 -22 5 -19 11 -20 13 -4 36 16 24 16 25 -2 15 -11 -5 -25 -6 -33 -1 -7
4 -19 6 -27 3 -8 -3 -13 2 -13 15 0 24 -46 57 -56 41 -5 -8 -8 -8 -13 0 -5 8
-20 7 -53 -3 -45 -13 -46 -13 -59 10 -8 16 -15 20 -20 13 -10 -17 -41 3 -79
51 -17 22 -38 40 -46 40 -21 0 -17 -16 9 -33 12 -8 19 -18 15 -22 -4 -4 -18 4
-31 18 -15 14 -42 27 -69 31 l-43 7 30 -26 c23 -20 25 -25 10 -21 -19 5 -135
26 -142 26 -1 0 0 -7 3 -15 7 -18 8 -18 -56 -4 -43 9 -59 8 -96 -6 -24 -9 -44
-21 -44 -27 0 -6 -12 -8 -30 -4 -18 3 -30 1 -30 -5 0 -13 -62 -39 -95 -39 -14
0 -33 -4 -43 -9 -9 -6 -44 -18 -77 -27 -33 -9 -85 -31 -115 -48 -50 -27 -53
-31 -30 -36 23 -5 22 -7 -22 -43 -25 -20 -54 -37 -64 -38 -10 0 -14 -3 -8 -5
7 -3 10 -14 7 -25 -5 -18 -2 -19 22 -13 21 5 27 4 23 -7 -3 -8 -14 -15 -26
-17 -27 -4 -29 -22 -3 -22 11 0 23 -4 26 -10 9 -15 41 -12 54 4 8 10 9 16 1
21 -6 3 -8 11 -5 16 4 5 -1 9 -9 9 -9 0 -16 4 -16 9 0 5 50 8 115 6 111 -4
115 -3 115 17 0 16 -4 19 -24 14 -14 -3 -28 -2 -31 4 -3 5 -3 10 2 11 17 2 60
7 111 14 42 6 56 5 63 -6 6 -10 9 -10 9 -1 0 6 5 12 10 12 6 0 10 -6 10 -13 0
-15 66 -47 97 -47 14 0 19 -6 19 -22 -1 -19 5 -24 32 -26 40 -4 41 -17 1 -31
-17 -6 -28 -15 -25 -20 7 -11 -56 -24 -78 -15 -9 3 -16 1 -16 -5 0 -6 -6 -8
-14 -5 -8 3 -28 -2 -45 -11 -18 -9 -36 -13 -41 -10 -5 3 -12 0 -17 -7 -10 -17
-67 -48 -86 -48 -9 0 -24 -11 -35 -25 -11 -14 -25 -25 -31 -25 -6 0 -11 -9
-11 -20 0 -11 -4 -20 -10 -20 -14 0 -12 -37 3 -43 16 -7 -33 -48 -50 -42 -19
7 -16 -12 3 -19 9 -3 25 -6 37 -7 50 -2 -40 -28 -98 -29 -113 -1 -107 -27 8
-32 31 -1 57 -3 57 -5 0 -12 -68 -32 -125 -37 -38 -4 -75 -8 -82 -8 -6 -1 -14
-9 -16 -19 -7 -25 21 -32 99 -23 48 5 68 3 74 -6 9 -15 54 7 123 61 57 45 91
57 113 38 13 -11 18 -10 32 9 16 20 23 21 107 17 68 -3 96 0 112 11 21 13 23
12 38 -16 10 -19 20 -27 30 -24 8 4 15 2 15 -4 0 -16 -46 -23 -146 -21 -95 2
-111 -1 -99 -20 4 -7 51 -11 123 -11 83 0 113 -3 105 -11 -6 -6 -39 -13 -74
-15 -81 -6 -111 -13 -105 -22 7 -11 -80 -19 -119 -11 -11 3 -26 8 -33 13 -19
11 -42 0 -42 -21 0 -14 19 -23 78 -41 42 -12 91 -27 108 -32 70 -22 369 -5
422 24 15 9 45 20 67 26 54 14 114 49 138 82 21 28 21 28 1 42 -10 8 -38 17
-62 21 -33 5 -42 10 -40 23 2 12 21 20 68 27 65 10 65 11 64 43 -2 31 -1 32
41 32 29 0 45 -5 49 -15 6 -17 32 -20 41 -5 3 5 8 20 10 31 2 12 12 33 22 48
12 17 20 52 23 101 5 75 5 75 35 78 53 6 71 38 40 72 -14 15 -14 18 0 30 8 7
15 23 15 36 0 15 6 24 15 24 8 0 15 -5 15 -10 0 -6 10 -8 23 -5 26 7 87 -38
87 -63 0 -9 7 -12 19 -9 25 6 78 -42 86 -80 3 -15 10 -36 16 -45 5 -10 9 -24
9 -32 0 -8 15 -52 34 -98 47 -116 57 -138 84 -181 13 -22 21 -45 18 -53 -3 -9
2 -18 12 -21 9 -4 24 -15 33 -25 10 -11 23 -16 33 -12 12 5 16 0 16 -18 0 -14
8 -35 19 -46 19 -22 37 -30 26 -12 -20 33 40 75 71 49 11 -9 15 -8 20 6 5 13
14 15 38 10 17 -3 40 -8 51 -10 79 -14 186 -36 214 -44 40 -12 154 -7 196 9
16 6 34 9 41 6 6 -2 24 9 38 25 14 16 32 29 40 29 8 0 16 7 20 15 4 11 21 15
63 15 55 0 56 1 35 16 -77 54 57 89 221 59 32 -6 35 -5 41 26 3 18 2 35 -3 39
-6 3 -13 26 -17 50 -4 25 -10 50 -14 55 -10 13 -32 156 -26 163 8 7 36 -6 36
-18 0 -5 -4 -10 -10 -10 -5 0 -10 -5 -10 -10 0 -6 5 -9 12 -8 7 2 14 -8 17
-22 3 -14 13 -25 21 -25 15 0 26 -38 76 -258 45 -200 102 -696 75 -657 -5 8
-7 18 -4 23 3 4 -2 16 -12 26 -10 13 -14 28 -10 47 4 23 3 25 -4 9 -8 -16 -10
-12 -10 23 -1 33 -5 42 -18 42 -10 0 -14 -4 -8 -8 6 -4 11 -47 12 -95 0 -49 6
-94 13 -101 7 -10 8 -16 0 -21 -5 -3 -10 -1 -10 4 0 6 -7 11 -15 11 -11 0 -15
-12 -15 -45 0 -47 -12 -58 -29 -27 -5 10 -19 18 -30 19 -24 2 -27 -7 -9 -25
13 -13 11 -14 -39 -16 -34 -1 -43 8 -20 18 6 3 -12 4 -41 1 -36 -4 -52 -2 -47
5 13 20 -31 9 -57 -15 -29 -27 -87 -35 -89 -12 0 6 -4 3 -9 -8 -5 -11 -9 -14
-9 -7 -1 9 -6 10 -20 2 -25 -13 -34 -13 -26 0 3 6 -1 10 -9 10 -9 0 -16 -6
-16 -12 0 -9 -3 -10 -8 -2 -13 20 -50 35 -57 23 -4 -6 -13 -8 -20 -5 -8 3 -16
0 -19 -7 -3 -9 -7 -8 -14 2 -6 8 -17 11 -26 8 -8 -3 -18 -2 -20 2 -3 5 -19 11
-36 14 -18 4 -30 13 -30 22 0 9 -4 14 -9 11 -4 -3 -17 1 -27 9 -12 9 -14 14
-6 15 7 0 10 5 6 11 -3 6 -15 9 -25 6 -11 -3 -17 -1 -14 3 7 11 -10 21 -41 25
-14 1 -26 4 -28 6 -5 8 -160 185 -210 241 -38 43 -58 58 -78 58 -25 0 -26 -2
-17 -32 5 -17 22 -45 37 -62 41 -44 92 -122 102 -156 7 -24 6 -28 -8 -23 -24
9 -113 76 -141 107 -36 39 -86 36 -145 -10 -29 -22 -63 -38 -87 -41 -21 -3
-39 -10 -39 -14 0 -5 -9 -9 -19 -9 -11 0 -21 -5 -23 -11 -5 -15 -87 -13 -151
2 -34 8 -55 8 -70 1 -12 -5 -39 -17 -59 -26 -21 -10 -38 -21 -38 -26 0 -6 -6
-10 -14 -10 -8 0 -27 -6 -43 -14 -105 -53 -121 -59 -145 -53 -19 5 -29 16 -34
39 -12 49 -12 58 9 117 29 84 10 82 -84 -8 -46 -45 -92 -83 -101 -87 -10 -3
-18 -11 -18 -17 -1 -15 -105 -87 -126 -87 -8 0 -17 -8 -21 -18 -8 -22 -134
-142 -150 -142 -7 0 -13 -4 -13 -10 0 -5 -11 -12 -24 -16 -14 -3 -35 -21 -48
-40 -13 -20 -31 -34 -43 -34 -11 0 -29 -10 -40 -22 -13 -15 -20 -18 -23 -10
-3 10 -8 9 -22 -3 -10 -9 -21 -15 -26 -14 -23 4 -36 -2 -31 -16 5 -11 1 -12
-19 -5 -36 14 -47 12 -40 -5 3 -8 1 -15 -4 -15 -6 0 -11 8 -11 18 -1 15 -2 15
-6 1 -5 -20 -65 -32 -75 -15 -6 8 -8 7 -8 -1 0 -8 -15 -13 -40 -13 -31 0 -40
-4 -41 -17 0 -13 -3 -12 -10 6 -8 19 -12 21 -24 11 -12 -10 -15 -10 -15 3 0
13 -6 12 -37 -4 -21 -10 -42 -19 -48 -19 -11 0 -12 -5 -18 -65 -2 -18 -8 -29
-16 -27 -8 1 -10 -2 -5 -10 5 -7 9 -19 10 -28 1 -8 5 -24 9 -34 6 -14 5 -17
-3 -12 -17 11 -15 -5 5 -26 9 -10 13 -21 8 -26 -4 -4 -10 -1 -12 6 -7 19 -20
14 -27 -11 -6 -21 -7 -22 -21 -3 -8 11 -18 17 -21 13 -10 -10 23 -37 39 -32 7
3 20 -2 28 -11 10 -13 10 -16 1 -10 -10 6 -11 1 -6 -21 4 -15 11 -30 15 -33 4
-3 10 -16 14 -30 3 -14 15 -36 26 -49 17 -21 22 -23 31 -10 7 11 9 9 5 -8 -6
-25 18 -52 26 -31 4 10 8 10 16 -2 10 -13 12 -13 22 0 9 13 10 12 5 -2 -3 -10
-1 -18 4 -18 5 0 14 -9 21 -21 9 -18 8 -20 -9 -15 -15 5 -21 1 -26 -19 -4 -14
-13 -25 -21 -25 -17 0 -20 16 -5 25 22 14 8 21 -40 21 -38 0 -46 -2 -33 -9 24
-13 48 -38 56 -59 10 -28 -5 -21 -55 26 -26 24 -54 46 -62 49 -17 7 -22 53 -8
59 5 2 12 18 15 36 6 31 6 32 -21 26 -37 -9 -36 -9 -10 -34 18 -19 19 -22 5
-16 -10 3 -23 6 -28 6 -5 0 -9 7 -9 15 0 8 -7 15 -15 15 -8 0 -15 -5 -15 -11
0 -6 -6 -9 -12 -6 -7 2 -12 9 -11 15 1 5 -6 17 -16 26 -18 16 -19 15 -25 -10
-4 -15 -4 -39 -1 -55 4 -18 2 -29 -4 -29 -6 0 -12 10 -13 23 0 12 -2 34 -3 48
-2 28 -44 119 -55 119 -4 0 -12 -12 -19 -27 -12 -27 -13 -27 -27 -8 -8 10 -14
33 -14 51 0 28 -3 32 -25 30 -23 -1 -37 -26 -15 -26 6 0 10 -9 10 -20 0 -26
-16 -26 -32 0 -15 23 -28 26 -28 6 0 -8 7 -17 16 -20 11 -4 13 -13 8 -28 -9
-32 -9 -32 -37 -14 -13 9 -32 14 -42 10 -9 -4 -20 -3 -24 2 -7 11 -58 36 -81
40 -21 4 -50 43 -50 68 0 17 -2 18 -10 6 -13 -21 -17 -14 -55 95 -28 78 -34
111 -32 160 1 48 -2 67 -15 82 -10 11 -21 34 -24 51 -9 42 -24 51 -24 14 0
-16 -7 -35 -15 -42 -13 -10 -15 -9 -15 9 0 11 -5 21 -10 21 -14 0 -63 106 -57
122 3 8 9 2 16 -14 6 -16 13 -28 16 -28 3 0 13 18 22 41 13 35 18 38 26 24 6
-11 6 -30 -1 -54 -6 -20 -13 -47 -16 -61 -5 -24 -4 -24 9 -6 8 11 15 27 15 35
1 9 8 27 16 41 l15 25 -4 -28 c-3 -20 -1 -25 6 -18 18 18 28 13 26 -11 -6 -68
15 -80 27 -15 4 23 9 34 12 24 2 -9 7 -17 12 -17 12 0 50 -96 50 -129 0 -16 4
-33 10 -36 6 -3 10 5 10 19 0 42 17 76 35 70 18 -7 65 32 65 53 0 8 5 11 10 8
6 -3 10 -15 10 -26 0 -18 1 -19 24 -4 23 15 25 15 32 -7 4 -13 7 -26 6 -30 -1
-5 7 -8 19 -8 24 0 51 -56 55 -114 6 -106 16 -146 36 -157 15 -8 17 -13 8 -19
-9 -6 -6 -10 9 -15 13 -4 24 -5 26 -3 2 2 -1 25 -7 51 -8 39 -7 52 6 72 20 30
20 35 1 35 -18 0 -16 -6 -20 96 -2 45 -6 96 -10 114 -4 19 -3 30 2 27 6 -4 8
9 5 31 -2 20 -4 65 -4 100 1 34 -3 62 -8 62 -5 0 -7 7 -3 16 7 18 -16 124 -27
124 -4 0 -10 28 -13 63 -4 34 -10 87 -15 117 -6 32 -6 105 -1 175 5 66 9 220
9 343 0 123 4 221 9 218 4 -3 11 16 14 43 6 54 54 151 74 151 7 0 10 6 8 13
-3 6 0 19 5 27 9 13 12 13 24 -3 8 -10 20 -15 30 -11 12 5 14 10 6 19 -8 10
-8 15 1 21 9 5 6 10 -9 15 -25 10 -29 27 -8 35 9 3 12 12 9 21 -4 10 -2 14 4
10 14 -9 35 17 33 40 -3 27 11 64 21 57 12 -7 39 57 39 91 0 14 5 25 11 25 5
0 7 5 4 10 -7 11 15 70 26 70 4 0 9 14 11 30 6 39 -8 39 -17 0 -4 -16 -11 -30
-16 -30 -10 0 -1 75 12 102 13 25 11 61 -2 52 -8 -5 -10 1 -7 20 4 20 2 26
-11 24 -25 -4 -16 90 12 119 11 13 18 26 14 29 -4 4 -15 -3 -25 -16 l-18 -23
0 39 c1 22 11 55 24 75 26 43 29 63 4 33 -10 -11 -32 -23 -50 -27 -37 -8 -37
-8 -17 29 19 38 19 84 -1 98 -14 11 -12 15 14 41 28 28 36 49 33 83 -2 18 -21
15 -21 -4 0 -8 -4 -12 -10 -9 -5 3 -10 0 -10 -8 0 -7 -12 -24 -26 -38 -29 -26
-29 -24 1 33 10 21 27 40 37 44 10 3 18 11 18 17 0 7 14 18 30 25 17 8 30 18
30 24 0 7 -5 6 -14 -1 -11 -9 -17 -8 -30 4 -22 22 1 74 57 128 16 15 27 30 24
33 -6 6 -49 -16 -59 -31 -4 -5 -10 -7 -13 -3 -11 11 93 107 158 146 15 9 25
22 23 28 -2 6 3 11 12 10 13 -1 16 6 14 32 -2 21 1 32 10 33 7 1 2 4 -12 8
-14 4 -24 13 -23 19 4 15 -13 16 -22 2 -8 -13 -52 -13 -60 0 -4 6 -15 8 -25 5
-10 -3 -20 0 -23 9 -7 17 -6 17 133 21 126 2 132 3 100 17 -22 9 -23 11 -7 17
10 4 18 10 18 14 -3 22 1 26 16 20 11 -4 14 -3 9 6 -5 7 2 21 18 36 20 18 33
22 66 19 31 -3 46 1 63 16 28 26 13 41 -47 47 -51 6 -57 13 -23 28 12 6 21 17
19 24 -2 10 7 11 40 6 53 -9 59 -12 51 -30 -3 -8 -1 -15 3 -15 5 -1 30 -2 56
-4 44 -3 47 -2 37 15 -6 12 -21 19 -39 19 -20 0 -28 4 -25 13 3 7 -10 21 -30
31 -36 20 -46 36 -20 36 9 0 12 6 9 15 -4 8 -1 15 6 15 6 0 8 6 4 13 -4 6 15
-10 42 -38 33 -33 59 -51 79 -53 17 -2 40 -10 52 -18 12 -8 30 -14 38 -14 15
0 14 2 -1 18 -16 16 -16 17 -1 20 23 5 21 19 -3 25 -25 6 -27 27 -2 27 24 -1
52 -24 52 -44 0 -19 31 -19 36 -1 1 6 -31 37 -72 70 -40 33 -76 66 -79 74 -6
14 1 9 59 -41 11 -10 23 -18 28 -18 13 0 9 17 -7 30 -24 20 -19 43 8 34 12 -3
28 -11 35 -17 9 -7 11 -6 6 7 -4 9 -3 16 2 15 28 -5 33 3 29 44 -3 31 -2 37 5
21 5 -12 13 -25 19 -28 5 -3 13 -20 16 -38 6 -26 9 -28 17 -15 14 26 25 20 38
-19 8 -24 15 -32 20 -24 6 9 13 7 29 -9 l21 -21 0 25 c0 14 -7 28 -15 31 -8 4
-12 10 -9 15 3 5 -8 21 -23 35 -17 16 -23 28 -16 31 9 3 8 14 -2 44 -13 37
-13 39 4 29 10 -5 22 -26 25 -46 4 -20 12 -48 18 -63 6 -14 10 -30 9 -34 -1
-5 3 -6 9 -2 6 4 17 2 23 -4 7 -5 22 -10 32 -9 11 1 44 -2 72 -6 44 -7 54 -5
59 9 4 9 12 14 20 11 7 -3 17 7 23 26 13 38 13 38 1 38 -5 0 -10 -12 -10 -26
0 -16 -5 -24 -12 -22 -15 5 -26 40 -27 86 -1 26 3 32 19 32 11 0 19 6 18 13
-2 7 5 11 16 9 14 -3 17 1 12 13 -3 9 -4 21 -1 25 8 13 35 0 35 -15z m333 -2
c15 -29 13 -53 -4 -53 -5 0 -8 3 -7 8 1 4 -4 20 -10 35 -14 34 -15 37 -2 37 5
0 16 -12 23 -27z m257 7 c0 -11 -4 -20 -9 -20 -5 0 -7 9 -4 20 3 11 7 20 9 20
2 0 4 -9 4 -20z m-1735 -6 c9 -9 13 -19 10 -22 -3 -3 -15 4 -27 16 -13 12 -17
22 -11 22 6 0 19 -7 28 -16z m735 0 c0 -8 -4 -12 -10 -9 -5 3 -10 10 -10 16 0
5 5 9 10 9 6 0 10 -7 10 -16z m684 -34 c7 -24 6 -24 -8 -6 -9 11 -16 29 -16
40 1 17 2 18 9 6 5 -8 12 -26 15 -40z m-789 -6 c44 -58 48 -95 4 -44 -35 41
-61 90 -49 90 5 0 25 -21 45 -46z m329 9 c17 -92 17 -103 3 -103 -16 0 -27 41
-27 96 0 41 16 45 24 7z m-404 -12 c0 -5 9 -13 20 -16 20 -6 77 -81 69 -90
-10 -9 -54 22 -70 50 -10 17 -23 38 -29 48 -7 11 -7 17 0 17 5 0 10 -4 10 -9z
m1517 -13 c-3 -8 -6 -5 -6 6 -1 11 2 17 5 13 3 -3 4 -12 1 -19z m-1297 3 c0
-5 3 -17 7 -27 4 -11 3 -15 -4 -11 -14 9 -24 47 -12 47 5 0 9 -4 9 -9z m-315
-36 c25 -21 27 -25 11 -25 -19 0 -19 0 0 -22 l19 -23 -22 18 c-13 12 -19 25
-16 35 4 10 3 14 -2 10 -9 -9 -35 9 -35 23 0 15 13 10 45 -16z m552 -7 c-3 -7
-5 -2 -5 12 0 14 2 19 5 13 2 -7 2 -19 0 -25z m553 -28 c0 -5 -4 -10 -10 -10
-5 0 -10 5 -10 10 0 6 5 10 10 10 6 0 10 -4 10 -10z m287 -47 c12 -30 11 -31
-12 -29 -14 0 -25 7 -25 14 0 7 5 10 10 7 6 -3 10 1 10 9 0 9 -7 16 -16 16 -8
0 -12 5 -9 11 11 17 28 5 42 -28z m601 -37 c-7 -8 -15 -12 -17 -11 -5 6 10 25
20 25 5 0 4 -6 -3 -14z m-288 -196 c0 -5 -4 -10 -10 -10 -5 0 -10 5 -10 10 0
6 5 10 10 10 6 0 10 -4 10 -10z m-1970 -90 c0 -5 -4 -10 -10 -10 -5 0 -10 5
-10 10 0 6 5 10 10 10 6 0 10 -4 10 -10z m2628 -186 c-4 -3 -12 5 -18 18 -12
22 -12 22 6 6 10 -10 15 -20 12 -24z m-2758 -4 c0 -5 -9 -10 -20 -10 -11 0
-20 5 -20 10 0 6 9 10 20 10 11 0 20 -4 20 -10z m-228 -361 c-27 -33 -66 -69
-75 -69 -8 0 6 20 48 68 26 29 52 30 27 1z m2758 -119 c0 -5 -2 -10 -4 -10 -3
0 -8 5 -11 10 -3 6 -1 10 4 10 6 0 11 -4 11 -10z m56 -93 c14 -30 7 -47 -18
-47 -17 0 -18 2 -8 15 10 12 10 19 2 27 -16 16 -15 28 1 28 6 0 17 -10 23 -23z
m17 -78 c7 -24 -1 -49 -15 -49 -5 0 -7 8 -3 19 3 12 0 21 -10 25 -9 3 -13 10
-10 16 11 17 32 11 38 -11z m-2860 -56 c-7 -2 -13 -11 -13 -19 0 -8 -5 -14
-10 -14 -7 0 -7 6 0 20 6 11 16 20 23 19 9 0 9 -2 0 -6z m37 -43 c0 -5 -5 -10
-11 -10 -5 0 -7 5 -4 10 3 6 8 10 11 10 2 0 4 -4 4 -10z m3367 -16 c-3 -3 7
-27 23 -53 15 -27 31 -61 34 -77 4 -17 17 -45 29 -64 12 -19 31 -57 43 -85 14
-31 29 -50 39 -50 9 0 25 -11 35 -25 29 -37 24 -50 -6 -16 -14 15 -28 25 -31
22 -4 -3 0 -12 9 -19 24 -20 60 -77 48 -77 -6 0 -13 7 -17 16 -3 9 -18 30 -34
46 -15 17 -51 78 -79 137 -29 58 -61 123 -72 145 -34 65 -41 106 -20 106 3 0
3 -3 -1 -6z m-606 -97 c-10 -10 -16 3 -12 26 1 5 -8 11 -19 14 -19 5 -19 6 -3
19 16 11 20 9 31 -18 9 -22 10 -34 3 -41z m619 -119 c0 -10 6 -18 13 -17 25 3
36 -1 32 -13 -4 -10 56 -95 144 -204 5 -6 20 -29 34 -52 15 -22 41 -57 58 -77
17 -19 29 -38 26 -42 -7 -7 -101 93 -137 146 -51 76 -72 102 -77 97 -3 -2 7
-22 21 -43 30 -44 32 -55 9 -46 -14 6 -13 2 4 -21 48 -61 152 -164 194 -193
24 -17 55 -50 69 -73 51 -86 100 -130 87 -78 -5 19 -4 19 9 7 8 -8 16 -35 18
-59 2 -25 5 -45 6 -45 1 0 3 -19 5 -43 1 -28 -2 -45 -12 -50 -18 -11 0 -62 22
-62 8 0 15 -9 15 -20 0 -13 -7 -20 -20 -20 -12 0 -20 6 -18 13 2 6 -2 13 -7
14 -6 2 -10 -3 -10 -10 0 -7 -19 -37 -43 -66 -23 -30 -42 -62 -42 -73 0 -32
-36 -88 -57 -88 -4 0 -9 -10 -9 -22 -1 -13 -9 -45 -19 -73 -9 -27 -21 -68 -27
-90 -6 -22 -17 -57 -25 -79 -7 -21 -15 -59 -17 -84 -3 -28 -10 -48 -20 -54
-15 -8 -22 5 -17 34 0 4 3 63 6 131 6 118 5 128 -20 189 -14 36 -34 74 -44 85
-10 10 -20 25 -23 33 -3 8 -8 -2 -12 -22 -10 -54 -33 -49 -42 7 -3 25 -10 48
-15 51 -17 10 -72 129 -74 159 -2 17 -6 38 -10 48 -4 10 -3 23 4 30 12 12 15
51 3 43 -10 -6 -12 8 -18 116 -5 85 -5 86 18 90 32 4 37 50 9 75 -22 19 -30
86 -11 98 6 4 8 34 4 78 -4 52 -3 68 5 57 9 -12 11 -10 11 11 0 14 -7 34 -15
45 -17 23 -21 79 -4 68 6 -3 16 -18 23 -33 26 -59 61 -101 85 -101 22 0 23 1
8 18 -17 19 -55 85 -88 152 -12 25 -26 53 -30 62 -14 29 -11 42 6 28 8 -7 15
-21 15 -32z m-30 -45 c0 -22 -2 -25 -10 -13 -13 20 -13 40 0 40 6 0 10 -12 10
-27z m-2189 -290 c13 -16 12 -17 -3 -4 -10 7 -18 15 -18 17 0 8 8 3 21 -13z
m422 -124 c-14 -14 11 -44 27 -34 5 3 10 -1 10 -9 0 -9 -2 -16 -4 -16 -2 0
-12 -3 -20 -6 -12 -4 -15 -2 -10 9 3 9 -4 21 -18 31 -19 14 -21 18 -8 26 21
13 36 12 23 -1z m1787 -35 c0 -8 -4 -12 -10 -9 -5 3 -10 13 -10 21 0 8 5 12
10 9 6 -3 10 -13 10 -21z m607 -26 c9 -10 11 -18 6 -18 -6 0 -21 8 -33 18 -18
15 -20 19 -7 19 9 0 24 -9 34 -19z m-138 -62 c-2 -2 -13 8 -23 22 l-19 27 24
-22 c12 -12 21 -24 18 -27z m90 25 c17 -13 22 -24 17 -36 -6 -16 -10 -15 -36
10 -17 16 -30 32 -30 37 0 14 24 8 49 -11z m-14 -51 c3 -5 2 -10 -4 -10 -5 0
-13 5 -16 10 -3 6 -2 10 4 10 5 0 13 -4 16 -10z m-3135 -10 c0 -5 -4 -10 -10
-10 -5 0 -10 5 -10 10 0 6 5 10 10 10 6 0 10 -4 10 -10z m70 -155 c0 -12 -54
-35 -83 -35 -5 0 -23 -6 -40 -14 -95 -40 -107 -43 -107 -25 0 13 22 32 65 56
60 33 165 45 165 18z m3255 -15 c3 -5 1 -10 -4 -10 -6 0 -11 5 -11 10 0 6 2
10 4 10 3 0 8 -4 11 -10z m-1722 -194 c8 -21 -3 -27 -41 -20 -25 5 -33 3 -28
-5 4 -6 3 -11 -3 -11 -5 0 -13 5 -16 10 -3 6 -1 10 4 10 6 0 11 7 11 15 0 20
66 21 73 1z m-147 -26 c23 0 16 -27 -8 -34 -35 -9 -38 -8 -38 20 0 20 4 25 16
20 9 -3 22 -6 30 -6z m1174 -10 c0 -5 -5 -10 -11 -10 -5 0 -7 5 -4 10 3 6 8
10 11 10 2 0 4 -4 4 -10z m-2515 -10 c3 -5 -1 -10 -10 -10 -9 0 -13 5 -10 10
3 6 8 10 10 10 2 0 7 -4 10 -10z m-43 -12 c-9 -9 -15 -9 -24 0 -9 9 -7 12 12
12 19 0 21 -3 12 -12z m-1471 -256 c-16 -30 -14 -32 20 -15 34 17 53 8 47 -22
-4 -23 -56 -29 -75 -9 -9 8 -23 12 -34 9 -10 -4 -19 -2 -19 3 0 6 5 12 12 14
7 3 9 12 5 22 -6 14 -10 16 -21 7 -7 -6 -16 -8 -19 -4 -4 3 -7 0 -7 -8 0 -8
-12 -27 -28 -44 -29 -33 -52 -87 -52 -126 0 -14 -7 -34 -15 -45 -15 -17 -16
-14 -12 51 5 84 39 179 73 202 44 29 86 32 113 7 19 -18 21 -25 12 -42z m39
-92 c0 -5 -9 -10 -20 -10 -11 0 -20 5 -20 10 0 6 9 10 20 10 11 0 20 -4 20
-10z m4480 -97 c11 -10 20 -21 20 -25 0 -15 -55 -8 -84 11 -25 17 -26 20 -10
24 37 9 54 7 74 -10z m75 -44 c13 -19 -4 -59 -25 -59 -16 0 -20 7 -20 35 0 28
4 35 19 35 11 0 23 -5 26 -11z m-4571 -14 c-7 -16 -24 -21 -24 -6 0 8 7 13 27
20 1 1 0 -6 -3 -14z m4621 -24 c-3 -6 -11 -11 -17 -11 -6 0 -6 6 2 15 14 17
26 13 15 -4z m-4818 -45 c-4 -27 -2 -46 4 -48 6 -2 13 -22 16 -44 4 -33 2 -42
-12 -48 -10 -3 -19 -5 -21 -3 -6 6 -6 165 0 176 14 22 19 10 13 -33z m233 -7
c-9 -22 -10 -33 -2 -38 6 -4 0 -19 -19 -41 -30 -37 -39 -25 -15 22 8 14 19 43
26 63 7 20 14 34 17 31 3 -3 0 -19 -7 -37z m4653 -36 c-7 -2 -19 -2 -25 0 -7
3 -2 5 12 5 14 0 19 -2 13 -5z m-4713 -23 c0 -5 -2 -10 -4 -10 -3 0 -8 5 -11
10 -3 6 -1 10 4 10 6 0 11 -4 11 -10z m-60 -31 c0 -5 4 -8 9 -5 5 3 4 -13 -1
-37 -6 -23 -11 -50 -12 -59 0 -10 -4 -18 -8 -18 -4 0 -8 -5 -8 -10 0 -6 -16
-27 -35 -47 -44 -45 -55 -37 -62 47 -6 62 -6 62 16 51 12 -7 19 -16 16 -21 -3
-5 -1 -11 5 -15 5 -3 10 -16 11 -28 0 -13 9 1 20 33 11 30 17 61 14 68 -2 7 1
22 8 32 13 22 27 26 27 9z m4007 -21 c-3 -8 -6 -5 -6 6 -1 11 2 17 5 13 3 -3
4 -12 1 -19z m-3777 -17 c0 -43 -10 -61 -32 -61 -21 0 -19 19 4 68 16 31 28
28 28 -7z m4472 -43 c-7 -7 -12 -8 -12 -2 0 14 12 26 19 19 2 -3 -1 -11 -7
-17z m-655 -10 c-3 -8 -6 -5 -6 6 -1 11 2 17 5 13 3 -3 4 -12 1 -19z m323 1
c0 -11 -8 -34 -17 -50 -13 -22 -25 -29 -47 -29 -27 0 -28 -1 -12 -13 16 -12
17 -16 5 -35 -8 -12 -17 -22 -20 -22 -4 0 -23 19 -44 41 -31 35 -36 46 -31 72
8 40 14 44 29 23 10 -14 18 -15 40 -7 15 6 30 18 33 26 4 9 18 15 35 15 23 0
29 -5 29 -21z m-4256 -64 c-4 -8 -8 -15 -10 -15 -2 0 -4 7 -4 15 0 8 4 15 10
15 5 0 7 -7 4 -15z m4032 -38 c-3 -12 -19 -38 -36 -57 -16 -19 -30 -41 -30
-48 0 -7 -4 -10 -10 -7 -18 11 -11 53 13 79 32 35 42 49 52 71 8 19 8 19 12 2
3 -10 2 -28 -1 -40z m-89 1 c-3 -7 -5 -2 -5 12 0 14 2 19 5 13 2 -7 2 -19 0
-25z m-317 12 c0 -5 -4 -10 -10 -10 -5 0 -10 5 -10 10 0 6 5 10 10 10 6 0 10
-4 10 -10z m790 -44 c-1 -49 -42 -58 -54 -13 -8 31 -8 34 11 52 16 16 17 16
30 -1 7 -10 13 -27 13 -38z m-2506 -17 c60 -61 90 -81 116 -83 11 0 20 -5 20
-11 0 -14 47 -25 79 -19 19 4 32 0 45 -15 10 -11 23 -18 29 -15 8 3 11 -10 10
-41 -2 -42 0 -45 24 -45 44 0 93 -22 93 -42 0 -18 4 -19 79 -22 28 -1 34 -5
36 -23 1 -17 -4 -23 -19 -24 -62 -5 -90 -8 -111 -13 -13 -3 -27 -2 -30 4 -3 5
-14 10 -25 10 -13 0 -17 -5 -13 -19 5 -18 1 -19 -42 -15 -56 5 -103 -6 -198
-50 -39 -18 -88 -37 -107 -41 -19 -4 -43 -13 -54 -21 -10 -7 -25 -10 -32 -7
-8 3 -14 1 -14 -5 0 -6 -22 -18 -48 -26 -82 -27 -182 0 -182 49 0 8 5 15 11
15 6 0 9 7 6 15 -4 8 -2 17 2 20 5 2 13 24 19 47 6 24 20 53 32 66 17 18 19
26 9 44 -9 17 -9 24 5 33 9 7 16 26 16 44 0 19 6 34 15 37 9 4 13 13 10 23 -2
9 2 29 10 45 8 15 15 33 15 40 0 22 47 69 81 81 53 20 58 18 113 -36z m286
-109 c0 -5 -4 -10 -10 -10 -5 0 -10 5 -10 10 0 6 5 10 10 10 6 0 10 -4 10 -10z
m-2269 -73 c-10 -9 -11 -8 -5 6 3 10 9 15 12 12 3 -3 0 -11 -7 -18z m4090 -6
c4 -3 10 -26 14 -50 7 -42 6 -43 -16 -36 -13 4 -29 12 -36 17 -15 12 -27 64
-18 78 6 10 43 5 56 -9z m-4058 -64 c-8 -14 -23 4 -23 27 0 35 14 41 21 9 3
-15 4 -31 2 -36z m2321 -151 c-3 -9 -12 -16 -20 -16 -11 0 -10 4 4 18 20 22
25 21 16 -2z m-59 -12 c13 -5 14 -8 3 -15 -19 -13 -28 -11 -28 6 0 17 2 18 25
9z m-45 -14 c13 -8 13 -10 -2 -10 -9 0 -20 5 -23 10 -8 13 5 13 25 0z m1777
-117 c-3 -10 -5 -4 -5 12 0 17 2 24 5 18 2 -7 2 -21 0 -30z m-1556 -13 c10 -6
27 -27 38 -47 l19 -37 20 41 c23 44 37 53 86 53 41 0 75 -24 93 -67 l14 -35
33 38 c38 44 50 40 76 -20 39 -88 24 -156 -34 -148 -17 3 -37 9 -43 14 -9 8
-13 6 -13 -5 0 -29 -46 -47 -118 -47 -56 0 -72 4 -87 20 -18 20 -18 20 -29 -2
-8 -17 -24 -25 -56 -30 -54 -8 -140 0 -159 16 -8 6 -41 9 -77 7 -57 -2 -66 0
-89 23 -23 23 -28 24 -41 12 -7 -8 -32 -22 -54 -32 -36 -16 -40 -22 -40 -52 0
-33 1 -34 18 -19 10 10 24 17 30 17 6 0 14 11 18 25 11 43 36 48 77 17 37 -27
45 -46 27 -57 -18 -11 0 -25 31 -25 22 0 29 5 29 19 0 12 9 20 27 24 36 7 46
2 63 -36 14 -29 20 -33 75 -40 61 -7 122 -8 230 -4 33 2 63 -1 67 -7 4 -6 14
-4 26 8 18 16 28 16 98 6 43 -6 85 -17 94 -25 10 -10 10 -15 2 -15 -7 0 -12
-9 -12 -20 0 -11 -7 -20 -15 -20 -8 0 -15 -5 -15 -11 0 -6 -7 -9 -15 -5 -9 3
-15 0 -15 -10 0 -11 -5 -14 -16 -10 -10 4 -25 -1 -36 -10 -10 -10 -21 -15 -24
-11 -3 3 -25 -2 -47 -12 -60 -25 -107 -33 -107 -18 0 8 -3 9 -8 1 -8 -13 -46
-34 -61 -34 -6 0 -11 11 -11 24 0 13 -3 31 -6 40 -11 27 -24 17 -24 -17 0 -27
-4 -33 -20 -32 -11 1 -22 4 -25 7 -4 3 -34 0 -67 -8 -40 -10 -65 -11 -71 -5
-7 7 -17 6 -31 -1 -15 -8 -21 -8 -24 1 -3 9 -8 9 -20 -1 -12 -10 -16 -10 -19
0 -3 6 -9 12 -14 12 -6 0 -8 -4 -5 -9 3 -5 -1 -14 -9 -21 -12 -10 -15 -9 -16
6 0 11 -3 14 -6 7 -2 -7 -20 -13 -39 -13 -37 0 -45 -18 -18 -41 12 -10 17 -10
23 -1 5 8 15 10 26 6 18 -7 18 -8 -1 -14 -14 -6 -8 -10 26 -17 40 -8 45 -12
45 -36 1 -37 12 -43 97 -45 39 -2 75 -5 79 -8 10 -6 211 -16 310 -15 42 0 123
-6 180 -14 100 -13 105 -13 123 7 10 10 25 17 33 14 8 -3 12 -2 9 2 -3 5 11 9
30 9 19 1 34 -3 34 -9 0 -5 8 -7 18 -3 16 4 19 0 19 -32 0 -21 3 -57 7 -80 7
-36 5 -42 -13 -48 -11 -3 -18 -12 -15 -18 6 -17 -65 -97 -87 -97 -9 0 -19 -4
-21 -10 -4 -12 -64 -16 -105 -6 -29 7 -32 5 -38 -22 -5 -27 -10 -29 -46 -28
-21 0 -39 4 -39 8 0 5 -9 8 -20 8 -11 0 -20 -6 -20 -14 0 -12 -21 -27 -42 -30
-3 -1 -10 -4 -14 -8 -13 -14 -44 -8 -44 7 0 16 -25 21 -34 6 -3 -5 -27 -9 -53
-10 -27 0 -72 -5 -102 -11 -29 -5 -56 -10 -58 -10 -2 0 -2 -4 2 -9 11 -19 -36
-40 -81 -36 -34 3 -44 0 -44 -11 0 -10 -8 -14 -22 -12 -13 2 -22 -1 -21 -7 1
-10 -82 -18 -157 -16 -103 2 -260 33 -260 51 0 6 -7 10 -15 10 -8 0 -15 5 -15
11 0 5 -4 7 -10 4 -5 -3 -20 1 -32 9 -13 8 -38 17 -57 21 -19 4 -48 16 -65 26
-17 10 -41 19 -53 19 -13 0 -23 5 -23 10 0 6 -14 10 -30 10 -17 0 -40 9 -52
20 -12 10 -25 17 -30 14 -4 -3 -8 -1 -8 5 0 6 -15 17 -34 26 -18 9 -39 28 -45
42 -7 14 -23 35 -37 45 -13 11 -21 24 -18 29 3 6 -3 13 -15 16 -12 3 -30 25
-43 50 -19 38 -20 46 -8 53 12 8 11 12 -8 26 l-23 16 21 15 c16 11 24 12 35 3
8 -7 15 -7 19 -1 3 5 -4 18 -16 28 -16 12 -23 29 -23 51 0 31 2 33 28 29 25
-3 28 -1 22 17 -4 12 -8 29 -9 38 -1 10 -5 21 -9 24 -4 4 0 16 10 26 9 10 13
21 10 24 -4 4 -15 -4 -25 -16 -11 -13 -24 -20 -30 -16 -13 8 -16 27 -4 25 19
-3 23 2 13 15 -8 10 -9 16 -1 21 5 3 10 -1 10 -10 0 -12 6 -15 19 -10 11 3 22
1 26 -5 3 -5 12 -10 18 -10 8 0 8 3 -2 9 -9 6 -10 11 -2 15 15 10 14 27 -1 21
-10 -4 -13 10 -13 50 0 30 3 55 8 55 4 0 7 -5 7 -11 0 -7 10 -9 26 -5 31 8 96
-3 88 -15 -3 -5 4 -9 15 -9 12 0 21 5 21 10 0 6 10 14 23 19 12 5 44 25 71 45
27 19 53 33 58 30 4 -3 5 2 2 10 -3 8 -12 17 -20 20 -18 7 -18 22 1 30 15 5
127 -42 133 -56 2 -5 12 -8 22 -8 10 0 39 -9 65 -20 65 -28 87 -26 108 11 29
51 16 68 -23 29 -31 -31 -66 -26 -79 11 -14 40 -14 104 -1 130 14 26 48 24 70
-3 l19 -23 15 35 c20 47 49 70 89 70 31 0 39 -6 68 -50 8 -13 13 -11 32 13 23
28 46 33 75 18 26 -13 74 -23 68 -13 -6 11 4 25 34 45 28 19 120 23 151 7z
m-227 -6 c9 -3 14 -10 11 -14 -6 -10 -45 -1 -45 11 0 10 12 11 34 3z m714 -34
c19 -18 21 -27 16 -98 -7 -80 -14 -99 -34 -87 -9 6 -9 10 1 16 10 6 8 9 -7 9
-39 0 -55 126 -22 168 14 16 21 15 46 -8z m566 -92 c-3 -5 -1 -8 4 -8 5 0 12
-11 14 -24 4 -17 1 -23 -9 -19 -7 3 -13 0 -13 -7 0 -7 -8 -9 -21 -5 -16 5 -20
3 -17 -6 3 -8 11 -14 19 -14 7 0 13 -9 13 -20 0 -30 -27 -114 -35 -109 -4 2
-9 -3 -13 -11 -3 -8 -10 -15 -16 -15 -6 0 -8 5 -4 12 4 6 7 32 5 56 -2 41 22
143 39 167 4 6 11 26 16 45 l7 35 8 -35 c4 -19 5 -38 3 -42z m956 -40 c0 -4
-7 -8 -15 -8 -8 0 -15 4 -15 8 0 5 7 9 15 9 8 0 15 -4 15 -9z m-3830 -2 c0 -3
-4 -8 -10 -11 -5 -3 -10 -1 -10 4 0 6 5 11 10 11 6 0 10 -2 10 -4z m321 -146
c10 -6 19 -18 19 -27 0 -11 4 -13 13 -6 18 15 56 22 62 13 3 -5 0 -12 -5 -15
-6 -4 -10 -18 -8 -33 2 -14 -3 -27 -9 -29 -7 -3 -13 2 -13 11 0 9 -8 16 -20
16 -11 0 -20 5 -20 10 0 6 -11 10 -25 10 -16 0 -25 6 -25 16 0 13 -2 13 -14 2
-8 -8 -16 -23 -20 -34 -3 -10 -4 -6 -2 9 2 18 -2 31 -10 34 -8 3 -11 10 -8 15
4 6 10 5 15 -3 7 -11 9 -10 9 4 0 19 30 23 61 7z m49 0 c0 -5 -4 -10 -10 -10
-5 0 -10 5 -10 10 0 6 5 10 10 10 6 0 10 -4 10 -10z m3480 -30 c0 -5 -5 -10
-11 -10 -5 0 -7 5 -4 10 3 6 8 10 11 10 2 0 4 -4 4 -10z m-3180 -10 c0 -5 -4
-10 -10 -10 -5 0 -10 5 -10 10 0 6 5 10 10 10 6 0 10 -4 10 -10z m-340 -40 c0
-5 -7 -10 -15 -10 -8 0 -15 5 -15 10 0 6 7 10 15 10 8 0 15 -4 15 -10z m330 0
c0 -5 -5 -10 -11 -10 -5 0 -7 5 -4 10 3 6 8 10 11 10 2 0 4 -4 4 -10z m1700
-6 c0 -3 -7 -12 -15 -20 -12 -13 -15 -13 -15 -1 0 7 3 17 7 20 8 8 23 9 23 1z
m-1996 -38 c9 -34 -12 -45 -34 -16 -25 33 -25 38 4 38 16 0 26 -7 30 -22z m74
-10 c8 -5 18 -4 25 3 18 18 30 13 24 -12 -8 -28 7 -57 16 -33 4 10 17 14 41
13 41 -3 65 -20 45 -32 -8 -5 -10 -4 -5 3 5 8 -2 12 -19 12 -14 0 -28 -7 -31
-15 -8 -19 -32 -16 -57 8 -11 11 -28 17 -42 15 -29 -6 -57 15 -49 36 6 16 28
17 52 2z m-28 -76 c0 -5 -4 -10 -10 -10 -5 0 -10 5 -10 10 0 6 5 10 10 10 6 0
10 -4 10 -10z m60 -10 c0 -5 -2 -10 -4 -10 -3 0 -8 5 -11 10 -3 6 -1 10 4 10
6 0 11 -4 11 -10z m110 1 c0 -14 -18 -23 -30 -16 -6 4 -8 11 -5 16 8 12 35 12
35 0z m54 -7 c4 -9 3 -20 0 -23 -4 -3 -9 0 -11 7 -3 6 -11 12 -19 12 -8 0 -14
5 -14 10 0 17 37 11 44 -6z m-29 -24 c3 -5 1 -10 -4 -10 -6 0 -11 5 -11 10 0
6 2 10 4 10 3 0 8 -4 11 -10z m2652 -58 c-7 -62 -37 -139 -37 -94 0 41 24 152
34 152 5 0 6 -25 3 -58z m-2677 28 c0 -5 -7 -10 -16 -10 -8 0 -12 5 -9 10 3 6
10 10 16 10 5 0 9 -4 9 -10z m0 -42 c0 -13 -32 -6 -37 9 -3 7 3 9 16 6 12 -3
21 -10 21 -15z m17 -40 c-3 -8 -6 -5 -6 6 -1 11 2 17 5 13 3 -3 4 -12 1 -19z
m3306 -204 c-3 -8 -11 -14 -19 -14 -18 0 -21 23 -8 80 5 23 7 23 19 -14 7 -21
11 -45 8 -52z m-966 -169 c0 -8 -4 -12 -9 -9 -4 3 -8 9 -8 15 0 5 4 9 8 9 5 0
9 -7 9 -15z m-3032 -92 c-49 -11 -51 -13 -25 -34 l25 -20 -39 16 c-22 9 -42
18 -45 21 -11 11 25 24 64 23 22 -1 31 -3 20 -6z m3285 -32 c0 -34 -12 -81
-21 -81 -10 0 -12 60 -3 84 8 22 24 20 24 -3z m-3206 -16 c4 -11 -1 -15 -19
-15 -29 0 -34 16 -7 23 9 3 18 5 18 6 1 0 4 -6 8 -14z m-45 -69 c-6 -13 -22
-29 -36 -35 -31 -14 -80 -14 -88 0 -4 6 -14 8 -22 5 -9 -4 -13 -1 -10 6 2 7
12 13 23 13 10 1 25 5 33 9 21 13 95 34 103 29 4 -2 2 -14 -3 -27z m3215 -55
c-10 -47 -20 -37 -15 16 2 33 6 42 12 31 5 -9 6 -30 3 -47z m316 -12 c0 -10
-7 -19 -15 -19 -15 0 -21 31 -9 43 11 10 24 -3 24 -24z m185 21 c-3 -5 -12
-10 -18 -10 -7 0 -6 4 3 10 19 12 23 12 15 0z m-815 -57 c0 -7 -4 -13 -10 -13
-5 0 -10 12 -10 28 0 21 2 24 10 12 5 -8 10 -21 10 -27z m-3907 -3 c7 0 26
-13 42 -28 17 -15 41 -32 55 -38 25 -11 25 -11 -14 -22 -22 -6 -43 -9 -47 -6
-5 3 -19 -2 -31 -10 -13 -8 -38 -18 -57 -21 -19 -3 -42 -10 -52 -16 -29 -15
-24 17 10 60 15 20 34 47 41 61 15 29 34 43 38 30 2 -6 9 -10 15 -10z m-63 0
c0 -5 -4 -10 -10 -10 -5 0 -10 5 -10 10 0 6 5 10 10 10 6 0 10 -4 10 -10z
m1100 -19 c0 -6 -4 -13 -10 -16 -5 -3 -10 1 -10 9 0 9 5 16 10 16 6 0 10 -4
10 -9z m2884 -27 c9 -22 8 -24 -9 -24 -8 0 -15 9 -15 20 0 24 15 27 24 4z
m-110 -56 c6 -25 4 -28 -18 -28 -25 0 -25 0 -8 29 9 16 17 29 18 28 1 -1 4
-14 8 -29z m112 -3 c1 -8 -2 -13 -7 -9 -5 3 -9 12 -9 21 0 19 13 9 16 -12z
m270 -1 c-3 -8 1 -26 10 -40 16 -24 16 -24 -14 -24 -41 0 -47 14 -22 50 23 32
36 39 26 14z m304 7 c0 -11 -39 -41 -52 -41 -5 0 -8 11 -8 25 0 21 5 25 30 25
17 0 30 -4 30 -9z m-4640 -26 c0 -8 -4 -15 -10 -15 -5 0 -10 7 -10 15 0 8 5
15 10 15 6 0 10 -7 10 -15z m4224 -10 c4 -10 -1 -15 -14 -15 -13 0 -18 5 -14
15 4 8 10 15 14 15 4 0 10 -7 14 -15z m-130 -10 c4 -10 -1 -15 -15 -15 -17 0
-18 2 -7 15 16 18 15 18 22 0z m-138 -32 c-11 -11 -19 6 -11 24 8 17 8 17 12
0 3 -10 2 -21 -1 -24z m845 -66 c-13 -13 -15 1 -4 30 7 17 8 17 11 -1 2 -10
-1 -23 -7 -29z m197 1 c-3 -7 -13 -15 -24 -17 -16 -3 -17 -1 -5 13 16 19 34
21 29 4z m-3403 -48 c3 -5 -1 -10 -10 -10 -9 0 -13 5 -10 10 3 6 8 10 10 10 2
0 7 -4 10 -10z m-1338 -86 c-3 -3 -12 -4 -19 -1 -8 3 -5 6 6 6 11 1 17 -2 13
-5z"/>
<path d="M2870 5790 c0 -5 5 -10 11 -10 5 0 7 5 4 10 -3 6 -8 10 -11 10 -2 0
-4 -4 -4 -10z"/>
<path d="M2727 5729 c4 -13 8 -18 11 -10 2 7 -1 18 -6 23 -8 8 -9 4 -5 -13z"/>
<path d="M2185 5621 c-3 -5 -1 -12 5 -16 5 -3 10 1 10 9 0 18 -6 21 -15 7z"/>
<path d="M3245 5600 c-3 -5 -1 -10 4 -10 6 0 11 5 11 10 0 6 -2 10 -4 10 -3 0
-8 -4 -11 -10z"/>
<path d="M3501 5556 c-10 -12 -8 -13 8 -9 12 3 18 9 15 14 -7 12 -10 11 -23
-5z"/>
<path d="M1717 5433 c-10 -9 -9 -23 2 -23 5 0 11 7 15 15 5 15 -5 20 -17 8z"/>
<path d="M1687 5381 c6 -25 13 -26 39 -6 16 12 17 14 2 15 -9 0 -23 3 -31 6
-12 4 -14 0 -10 -15z"/>
<path d="M3730 4570 c20 -13 47 -13 55 0 4 6 -9 10 -32 10 -28 0 -34 -3 -23
-10z"/>
<path d="M3915 4460 c3 -5 8 -10 11 -10 2 0 4 5 4 10 0 6 -5 10 -11 10 -5 0
-7 -4 -4 -10z"/>
<path d="M3950 4460 c0 -5 5 -10 10 -10 6 0 10 5 10 10 0 6 -4 10 -10 10 -5 0
-10 -4 -10 -10z"/>
<path d="M2510 3996 c0 -8 6 -16 14 -19 10 -4 12 0 9 14 -6 22 -23 26 -23 5z"/>
<path d="M1512 3767 c-29 -31 -28 -39 5 -26 30 11 45 28 37 41 -8 13 -19 9
-42 -15z"/>
<path d="M1448 3705 c-20 -26 -22 -35 -10 -35 15 0 29 16 36 38 9 29 -4 28
-26 -3z"/>
<path d="M1855 3710 c3 -5 13 -10 21 -10 8 0 14 5 14 10 0 6 -9 10 -21 10 -11
0 -17 -4 -14 -10z"/>
<path d="M1910 3700 c-9 -6 -10 -10 -3 -10 6 0 15 5 18 10 8 12 4 12 -15 0z"/>
<path d="M1270 3600 c0 -16 5 -30 10 -30 6 0 10 14 10 30 0 17 -4 30 -10 30
-5 0 -10 -13 -10 -30z"/>
<path d="M1403 3605 c-23 -26 -14 -36 17 -20 17 9 28 20 25 25 -9 14 -28 12
-42 -5z"/>
<path d="M1440 3572 c0 -7 -7 -12 -15 -12 -17 0 -40 -38 -29 -48 4 -4 9 -1 11
6 3 6 15 12 28 12 19 0 23 4 20 21 -5 25 -15 38 -15 21z"/>
<path d="M1360 3490 c0 -5 5 -10 10 -10 6 0 10 5 10 10 0 6 -4 10 -10 10 -5 0
-10 -4 -10 -10z"/>
<path d="M3450 2995 c12 -15 30 -12 30 6 0 5 -10 9 -21 9 -18 0 -19 -2 -9 -15z"/>
<path d="M760 2075 c0 -30 36 -81 68 -98 43 -22 58 -21 65 3 4 15 1 20 -11 18
-11 -2 -20 8 -27 29 -8 25 -14 30 -27 22 -13 -7 -20 -5 -27 10 -13 24 -41 35
-41 16z"/>
<path d="M926 2004 c-8 -21 -8 -24 5 -24 5 0 7 5 4 10 -3 6 -1 10 4 10 6 0 11
5 11 10 0 16 -17 12 -24 -6z"/>
<path d="M1202 1890 c0 -14 2 -19 5 -12 2 6 2 18 0 25 -3 6 -5 1 -5 -13z"/>
<path d="M1360 1868 c0 -39 2 -43 25 -44 29 -2 30 2 9 44 -23 48 -34 48 -34 0z"/>
<path d="M1083 1854 c-14 -15 -17 -34 -5 -34 11 0 33 38 24 43 -4 3 -13 -1
-19 -9z"/>
<path d="M1020 1835 c0 -10 35 -45 45 -45 13 0 3 21 -12 27 -10 4 -21 11 -25
17 -5 7 -8 7 -8 1z"/>
<path d="M980 1781 c0 -6 5 -13 10 -16 8 -5 7 -11 0 -21 -20 -23 -6 -34 20
-14 24 18 24 19 6 39 -20 22 -36 27 -36 12z"/>
<path d="M1281 1744 c0 -11 3 -14 6 -6 3 7 2 16 -1 19 -3 4 -6 -2 -5 -13z"/>
<path d="M1390 1690 c0 -5 5 -10 11 -10 5 0 7 5 4 10 -3 6 -8 10 -11 10 -2 0
-4 -4 -4 -10z"/>
<path d="M1330 1673 c0 -19 21 -27 33 -13 9 10 9 11 -2 5 -8 -4 -17 -2 -22 6
-6 9 -9 10 -9 2z"/>
<path d="M1485 1574 c9 -9 18 -14 21 -11 9 9 -6 27 -22 27 -13 0 -13 -2 1 -16z"/>
<path d="M1474 1548 c-2 -4 5 -9 16 -13 20 -6 40 0 40 13 0 9 -51 9 -56 0z"/>
<path d="M1540 1545 c-17 -21 -5 -31 15 -12 8 9 15 18 15 21 0 11 -18 6 -30
-9z"/>
<path d="M5185 3620 c3 -5 8 -10 11 -10 2 0 4 5 4 10 0 6 -5 10 -11 10 -5 0
-7 -4 -4 -10z"/>
<path d="M5114 3543 c6 -18 4 -20 -13 -16 -15 4 -23 -1 -30 -18 -5 -13 -7 -26
-4 -29 6 -7 22 23 17 32 -7 11 3 10 26 -2 25 -13 37 18 14 39 -15 15 -16 14
-10 -6z"/>
<path d="M5032 3381 c-8 -4 -12 -19 -10 -32 l3 -24 23 25 c12 13 22 27 22 32
0 10 -21 10 -38 -1z"/>
<path d="M5006 3214 c-4 -10 -1 -14 6 -12 15 5 23 28 10 28 -5 0 -13 -7 -16
-16z"/>
<path d="M3420 680 c0 -5 5 -10 10 -10 6 0 10 5 10 10 0 6 -4 10 -10 10 -5 0
-10 -4 -10 -10z"/>
<path d="M4161 1475 c0 -35 1 -37 10 -17 6 15 5 30 -1 40 -7 13 -9 8 -9 -23z"/>
<path d="M315 320 c-3 -5 -2 -10 4 -10 5 0 13 5 16 10 3 6 2 10 -4 10 -5 0
-13 -4 -16 -10z"/>
<path d="M4082 5709 c-7 -10 -8 -19 -3 -19 13 0 33 28 23 33 -4 3 -13 -3 -20
-14z"/>
<path d="M4175 5661 c-3 -5 -1 -12 5 -16 12 -7 30 2 30 16 0 12 -27 12 -35 0z"/>
<path d="M4103 5598 c3 -14 14 -25 30 -29 24 -7 26 -5 16 12 -5 11 -7 24 -4
29 3 6 -5 10 -19 10 -21 0 -25 -4 -23 -22z"/>
<path d="M4420 5169 c-13 -8 -13 -10 0 -18 8 -5 44 -36 78 -69 39 -37 69 -59
78 -55 9 3 36 -18 74 -58 32 -35 61 -61 64 -58 3 3 -28 40 -69 82 -41 42 -75
74 -75 71 0 -5 -18 9 -58 46 -66 62 -77 69 -92 59z"/>
<path d="M4675 4855 c-3 -8 -7 -21 -9 -28 -2 -7 5 -24 15 -38 l19 -24 -8 25
c-4 14 -7 37 -6 53 1 30 -4 35 -11 12z"/>
<path d="M4733 4568 c-2 -43 10 -78 22 -66 4 3 2 15 -4 27 -7 13 -8 22 -1 26
9 6 13 0 26 -44 3 -8 7 -11 11 -7 6 6 -38 105 -47 106 -3 0 -6 -19 -7 -42z"/>
<path d="M5354 4434 c-12 -27 -12 -39 -3 -50 6 -8 9 -23 6 -34 -3 -11 -1 -20
5 -20 5 0 6 -5 2 -11 -4 -7 2 -9 17 -7 23 3 57 50 58 81 1 9 -8 25 -19 34 -11
10 -20 23 -20 30 0 27 -32 11 -46 -23z"/>
<path d="M5373 4235 c-10 -10 -9 -14 3 -19 22 -8 24 -8 24 8 0 21 -13 26 -27
11z"/>
<path d="M5420 4225 c0 -16 16 -20 24 -6 3 5 -1 11 -9 15 -9 3 -15 0 -15 -9z"/>
<path d="M5278 4206 c-7 -14 -16 -25 -20 -25 -5 -1 -12 -1 -18 -1 -18 0 -11
-22 15 -46 21 -19 27 -21 31 -9 3 8 2 20 -2 27 -6 10 -5 10 8 0 14 -11 18 -10
27 7 16 29 13 58 -5 65 -22 9 -22 9 -36 -18z"/>
<path d="M4987 4183 c-4 -7 -3 -14 3 -18 5 -3 10 -15 10 -27 0 -17 2 -18 15
-8 13 11 13 14 1 24 -7 6 -16 18 -18 26 -3 10 -7 11 -11 3z"/>
<path d="M5040 4122 c0 -12 49 -56 55 -50 3 2 -8 17 -25 31 -16 15 -30 23 -30
19z"/>
<path d="M5385 4080 c-11 -5 -14 -9 -7 -9 7 -1 20 -8 28 -16 20 -20 41 -20 24
0 -6 8 -9 19 -5 25 7 12 -12 12 -40 0z"/>
<path d="M5120 4031 c0 -5 5 -13 10 -16 6 -3 10 -2 10 4 0 5 -4 13 -10 16 -5
3 -10 2 -10 -4z"/>
<path d="M5150 4000 c0 -5 5 -10 11 -10 5 0 7 5 4 10 -3 6 -8 10 -11 10 -2 0
-4 -4 -4 -10z"/>
<path d="M5177 3952 c3 -7 9 -10 12 -5 3 4 10 11 15 15 4 4 -1 6 -12 5 -12 -1
-18 -6 -15 -15z"/>
<path d="M5220 3943 c0 -18 36 -57 43 -46 4 6 -5 21 -18 33 -14 13 -25 19 -25
13z"/>
<path d="M710 384 c0 -12 9 -29 20 -39 11 -10 20 -23 20 -30 0 -6 11 -21 25
-33 55 -48 100 -191 66 -212 -8 -4 -11 -15 -8 -24 3 -8 -1 -22 -9 -31 -14 -13
-13 -15 13 -15 15 1 39 7 53 15 22 12 23 14 8 20 -25 10 -22 31 5 40 l22 8
-22 4 c-22 4 -53 33 -36 33 5 0 9 17 7 38 -1 20 -2 45 -3 55 -1 9 -7 17 -15
17 -8 0 -17 7 -20 16 -3 8 -2 13 3 10 16 -10 19 19 5 39 -14 19 -15 19 -20 -3
-4 -12 -9 -22 -13 -22 -3 1 -27 31 -53 68 -34 47 -48 61 -48 46z"/>
<path d="M39 263 c-13 -16 -12 -17 4 -4 16 13 21 21 13 21 -2 0 -10 -8 -17
-17z"/>
<path d="M1644 255 c-11 -27 1 -39 19 -21 9 10 17 22 17 27 0 15 -30 10 -36
-6z"/>
<path d="M1080 229 c0 -5 5 -7 10 -4 6 3 10 8 10 11 0 2 -4 4 -10 4 -5 0 -10
-5 -10 -11z"/>
<path d="M1700 204 c0 -8 5 -12 10 -9 6 4 8 11 5 16 -9 14 -15 11 -15 -7z"/>
<path d="M1648 193 c7 -3 16 -2 19 1 4 3 -2 6 -13 5 -11 0 -14 -3 -6 -6z"/>
<path d="M1090 174 c0 -8 5 -12 10 -9 6 4 8 11 5 16 -9 14 -15 11 -15 -7z"/>
<path d="M901 158 c-1 -16 4 -28 9 -28 12 0 12 8 0 35 -8 18 -9 17 -9 -7z"/>
<path d="M1115 140 c3 -5 8 -10 11 -10 2 0 4 5 4 10 0 6 -5 10 -11 10 -5 0 -7
-4 -4 -10z"/>
<path d="M810 84 c0 -8 5 -12 10 -9 6 3 10 10 10 16 0 5 -4 9 -10 9 -5 0 -10
-7 -10 -16z"/>
<path d="M1120 90 c0 -5 9 -10 20 -10 11 0 20 5 20 10 0 6 -9 10 -20 10 -11 0
-20 -4 -20 -10z"/>
</g>
</svg>
